<svg width="129" height="25" viewBox="0 0 129 25" fill="none" xmlns="http://www.w3.org/2000/svg">
					<path d="M36.6 3.7C34.6 0.7 31.3 0.2 29 0.1C27 0 18.3 0 13.2 0C3.3 0 9 0 0 0V4.8C10.6 4.8 23.3 4.8 28.8 4.9C29.8 4.9 30.8 5 31.5 5.7C32.2 6.3 32.5 7.4 32.2 8.2C31.7 9.6 30.2 10 28.8 10C26.6 10 20.6 10 16.1 10.1C5.1 10.1 9.8 10.1 0 10.1V14.8C10.6 14.8 23.3 14.8 28.8 14.9C30.5 14.9 32.3 15.5 32.3 17.4C32.3 19.3 30.5 19.9 28.8 20C23.3 20 10.6 20 0 20V24.8C10.7 24.8 24.7 24.8 29 24.7C31.3 24.6 34.6 24.1 36.6 21.1C38.4 18.3 38 14.7 35.6 12.4C38 10 38.4 6.4 36.6 3.7Z" fill="black"></path>
					<path d="M123.5 2.9C120.2 0.6 116.7 0.2 113.9 0.2C111 0.1 106.8 0 103 0C93.7996 0 99.2996 0 90.5996 0V4.8C99.8996 4.8 106.4 4.7 113.6 4.9C115.7 5 118 5.2 120 6.6C121.9 7.9 123.1 10.1 123.1 12.4C123.1 14.7 122 16.8 120.1 18.2C118.1 19.6 115.8 19.8 113.7 19.9C106.5 20 99.9996 20 90.6996 20V24.8C99.9996 24.8 106.8 24.8 113.9 24.7C116.8 24.6 120.3 24.3 123.5 22C126.6 19.8 128.4 16.3 128.4 12.5C128.4 8.5 126.6 5.1 123.5 2.9Z" fill="Black"></path>
					<path d="M52.2004 10.7001C49.7004 10.7001 48.9004 9.8001 48.9004 7.4001C48.9004 5.1001 48.9004 2.4001 48.9004 0.100098H43.4004C43.4004 2.5001 43.4004 7.2001 43.4004 9.5001C43.6004 14.0001 45.0004 15.4001 49.6004 15.5001C52.8004 15.6001 55.3004 15.6001 59.7004 15.6001V10.8001C56.2004 10.7001 54.8004 10.7001 52.2004 10.7001Z" fill="black"></path>
					<path d="M79.4006 7.4C79.4006 9.8 78.6006 10.6 76.1006 10.7C74.9006 10.7 71.8006 10.7 69.2006 10.7C66.6006 10.7 63.8006 10.7 62.1006 10.7V24.7H68.6006V15.5C68.8006 15.5 69.0006 15.5 69.2006 15.5C72.6006 15.5 76.8006 15.5 78.3006 15.4C83.1006 15.3 84.6006 13.9 84.8006 9.4C84.8006 8.8 84.8006 8 84.8006 7.2V0H79.3006C79.4006 2.4 79.4006 5.1 79.4006 7.4Z" fill="black"></path>
					</svg>